<?xml version="1.0"?>
<svg xmlns="http://www.w3.org/2000/svg" id="bold" enable-background="new 0 0 24 24" height="512px" viewBox="0 0 24 24" width="512px"><g><path d="m9.5 6c-.87 0-8.5-.084-8.5-3s7.63-3 8.5-3 8.5.084 8.5 3-7.63 3-8.5 3z" data-original="#000000" class="active-path" data-old_color="#000000" fill="#00AF80"/><path d="m9.5 7.5c-2.137 0-6.278-.229-8.5-1.815v1.315c0 2.916 7.63 3 8.5 3s8.5-.084 8.5-3v-1.315c-2.222 1.586-6.363 1.815-8.5 1.815z" data-original="#000000" class="active-path" data-old_color="#000000" fill="#00AF80"/><path d="m13.73 11.19c-.46.56-.73 1.29-.73 2.06v.52c-1.64.22-3.14.23-3.5.23-.87 0-8.5-.08-8.5-3v-1.32c2.22 1.59 6.36 1.82 8.5 1.82 1.07 0 2.65-.06 4.23-.31z" data-original="#000000" class="active-path" data-old_color="#000000" fill="#00AF80"/><path d="m13 15.29v.21h-.25c-1.1 0-2.09.65-2.53 1.66-.12.27-.18.55-.21.83-.24.01-.41.01-.51.01-.87 0-8.5-.08-8.5-3v-1.32c2.22 1.59 6.36 1.82 8.5 1.82.91 0 2.17-.04 3.5-.21z" data-original="#000000" class="active-path" data-old_color="#000000" fill="#00AF80"/><path d="m12.38 21.84c-1.39.15-2.56.16-2.88.16-.87 0-8.5-.08-8.5-3v-1.32c2.22 1.59 6.36 1.82 8.5 1.82.24 0 .51 0 .8-.01.11.23.27.45.46.65z" data-original="#000000" class="active-path" data-old_color="#000000" fill="#00AF80"/><path d="m17.5 24c-.206 0-.402-.084-.544-.233l-4.75-5c-.207-.217-.264-.537-.145-.813.118-.275.389-.454.689-.454h2.25v-4.25c0-.689.561-1.25 1.25-1.25h2.5c.689 0 1.25.561 1.25 1.25v4.25h2.25c.3 0 .571.179.689.454.119.275.062.595-.145.813l-4.75 5c-.142.149-.338.233-.544.233z" data-original="#000000" class="active-path" data-old_color="#000000" fill="#00AF80"/></g> </svg>
