<?xml version="1.0"?>
<svg xmlns="http://www.w3.org/2000/svg" id="bold" enable-background="new 0 0 24 24" height="512px" viewBox="0 0 24 24" width="512px" class=""><g><path d="m17.5 11c-3.584 0-6.5 2.916-6.5 6.5s2.916 6.5 6.5 6.5 6.5-2.916 6.5-6.5-2.916-6.5-6.5-6.5zm2.808 8.252-2.25 2.5c-.143.158-.345.248-.558.248s-.415-.09-.558-.248l-2.25-2.5c-.198-.22-.248-.537-.128-.807.122-.271.39-.445.686-.445h1.25v-4c0-.552.447-1 1-1s1 .448 1 1v4h1.25c.296 0 .564.174.686.445.12.27.07.587-.128.807z" data-original="#000000" class="active-path" data-old_color="#000000" fill="#4949E7"/><path d="m19 0h-16c-1.657 0-3 1.343-3 3s1.343 3 3 3h16c1.657 0 3-1.343 3-3s-1.343-3-3-3zm-16 4c-.552 0-1-.448-1-1s.448-1 1-1 1 .448 1 1-.448 1-1 1zm4 0c-.552 0-1-.448-1-1s.448-1 1-1 1 .448 1 1-.448 1-1 1z" data-original="#000000" class="active-path" data-old_color="#000000" fill="#4949E7"/><path d="m19 8h-16c-1.66 0-3 1.34-3 3s1.34 3 3 3h6.76c1.33-2.95 4.3-5 7.74-5 1.6 0 3.11.45 4.39 1.23-.33-1.29-1.5-2.23-2.89-2.23zm-16 4c-.55 0-1-.45-1-1s.45-1 1-1 1 .45 1 1-.45 1-1 1zm4 0c-.55 0-1-.45-1-1s.45-1 1-1 1 .45 1 1-.45 1-1 1z" data-original="#000000" class="active-path" data-old_color="#000000" fill="#4949E7"/><path d="m9 17.5c0-.51.05-1.01.14-1.5h-6.14c-1.66 0-3 1.34-3 3s1.34 3 3 3h7.29c-.82-1.3-1.29-2.85-1.29-4.5zm-6 2.5c-.55 0-1-.45-1-1s.45-1 1-1 1 .45 1 1-.45 1-1 1zm4 0c-.55 0-1-.45-1-1s.45-1 1-1 1 .45 1 1-.45 1-1 1z" data-original="#000000" class="active-path" data-old_color="#000000" fill="#4949E7"/></g> </svg>
