<?xml version="1.0"?>
<svg xmlns="http://www.w3.org/2000/svg" id="Layer_1" enable-background="new 0 0 512 512" height="512px" viewBox="0 0 512 512" width="512px" class=""><g><g><path d="m498.726 13.275c-9.521-9.522-22.679-14.293-36.091-13.092-34.261 3.067-95.923 12.162-156.952 27.697-72.793 18.529-122.038 40.26-146.368 64.591-34.627 34.627-58.963 86.804-65.099 139.573-3.176 27.312-1.501 53.234 4.978 77.045 3.773 13.867 9.1 26.626 15.899 38.21-9.415 10.193-18.17 20-26.169 29.206-53.059 61.068-84.905 108.624-86.235 110.619-4.901 7.352-2.915 17.286 4.438 22.188 2.728 1.818 5.811 2.689 8.86 2.689 5.17 0 10.245-2.502 13.328-7.126.314-.471 32.032-47.84 83.765-107.381 6.684-7.692 13.917-15.821 21.618-24.238.661.688 1.314 1.383 1.99 2.059 17.753 17.753 40.034 30.368 66.224 37.494 16.005 4.355 32.959 6.539 50.654 6.539 8.629 0 17.438-.52 26.392-1.561 52.769-6.136 104.946-30.472 139.573-65.099 24.33-24.33 46.062-73.575 64.591-146.368 15.536-61.03 24.63-122.692 27.697-156.952 1.2-13.417-3.571-26.572-13.093-36.093zm-18.781 33.237c-6.875 76.79-38.291 238.795-83.042 283.546-58.932 58.931-178.05 82.164-237.588 22.628-.914-.914-1.808-1.843-2.683-2.785 44.63-46.284 101.394-97.671 163.791-136.298 7.514-4.651 9.834-14.512 5.183-22.026-4.65-7.512-14.511-9.835-22.026-5.182-62.845 38.904-119.923 89.938-165.318 136.489-30.854-63.519-6.573-157.533 43.68-207.786 44.75-44.75 206.756-76.167 283.547-83.042.436-.039.858-.058 1.27-.058 4.693 0 7.829 2.393 9.341 3.904 1.643 1.644 4.329 5.209 3.845 10.61z" data-original="#000000" class="active-path" data-old_color="#000000" fill="#00AF80"/></g></g> </svg>
